<svg width="175" height="153" viewBox="0 0 175 153" fill="none" xmlns="http://www.w3.org/2000/svg">
<path d="M125.56 20.5H130.355V45H125.56V34.85H116.46V45H111.63V20.5H116.46V30.23H125.56V20.5ZM136.937 25.4C136.19 25.4 135.537 25.1317 134.977 24.595C134.44 24.035 134.172 23.3817 134.172 22.635C134.172 21.8883 134.44 21.235 134.977 20.675C135.537 20.115 136.19 19.835 136.937 19.835C137.707 19.835 138.36 20.115 138.897 20.675C139.457 21.235 139.737 21.8883 139.737 22.635C139.737 23.3817 139.457 24.035 138.897 24.595C138.36 25.1317 137.707 25.4 136.937 25.4ZM134.697 45V27.5H139.212V45H134.697ZM144.184 36.775L143.239 27.5V20.5H148.664V27.5L147.754 36.775H144.184ZM148.069 44.58C147.486 45.1633 146.786 45.455 145.969 45.455C145.153 45.455 144.453 45.1633 143.869 44.58C143.286 43.9967 142.994 43.2967 142.994 42.48C142.994 41.6633 143.286 40.9633 143.869 40.38C144.453 39.7967 145.153 39.505 145.969 39.505C146.786 39.505 147.486 39.7967 148.069 40.38C148.653 40.9633 148.944 41.6633 148.944 42.48C148.944 43.2967 148.653 43.9967 148.069 44.58Z" fill="#4938CA"/>
<path d="M34.6187 150.735C28.7567 150.735 22.9587 147.759 19.1874 143.271V143.271C15.9414 139.409 14.2478 134.946 14.2478 129.9V106.098C14.2478 101.309 15.042 96.2395 17.8902 92.3885V92.3885C21.7806 87.1281 28.9136 85.8281 35.4563 85.8281H83.7591C90.0032 85.8281 96.8723 87.0033 100.783 91.8715C101.065 92.223 101.327 92.59 101.581 92.9878C103.893 96.6008 104.484 101.028 104.484 105.318V130.159C104.484 135.097 102.835 140.401 99.7066 144.222V144.222C95.8279 148.96 89.9355 150.735 83.8125 150.735H34.6187Z" fill="#4938CA"/>
<path d="M11.8099 107.016V127.899C6.04046 127.899 1.36877 123.227 1.36877 117.458C1.36877 111.688 6.04046 107.016 11.8099 107.016Z" fill="#4938CA"/>
<path d="M59.517 73.1633C53.7475 73.1633 49.0758 77.835 49.0758 83.6045H69.9595C69.9595 77.835 65.2864 73.1633 59.517 73.1633Z" fill="#4938CA"/>
<path d="M117.364 117.458C117.364 123.227 112.693 127.899 106.923 127.899V107.016C112.691 107.016 117.364 111.688 117.364 117.458Z" fill="#4938CA"/>
<path d="M59.5135 62.2752C62.1835 62.2752 64.348 60.1107 64.348 57.4407C64.348 54.7706 62.1835 52.6061 59.5135 52.6061C56.8434 52.6061 54.6789 54.7706 54.6789 57.4407C54.6789 60.1107 56.8434 62.2752 59.5135 62.2752Z" fill="#4938CA"/>
<path d="M40.3041 106.807C37.071 106.807 34.4251 109.453 34.4251 112.686C34.4251 115.919 37.071 118.565 40.3041 118.565C43.5372 118.565 46.183 115.919 46.183 112.686C46.183 109.453 43.5385 106.807 40.3041 106.807Z" fill="white"/>
<path d="M78.4291 118.565C81.6759 118.565 84.308 115.933 84.308 112.686C84.308 109.439 81.6759 106.807 78.4291 106.807C75.1822 106.807 72.5501 109.439 72.5501 112.686C72.5501 115.933 75.1822 118.565 78.4291 118.565Z" fill="white"/>
<path d="M64.2402 125.3C64.169 125.39 62.4731 127.518 59.3659 127.518C56.2013 127.518 54.5929 125.432 54.5108 125.326C54.0673 124.719 53.2173 124.582 52.6055 125.023C51.9922 125.465 51.854 126.321 52.2961 126.934C52.3933 127.069 54.7449 130.256 59.3645 130.256C63.8665 130.256 66.3125 127.094 66.4138 126.96C66.8683 126.36 66.7506 125.51 66.1551 125.052C65.5624 124.597 64.7028 124.704 64.2402 125.3V125.3Z" fill="white"/>
<path d="M163.468 0H93.6601C87.7825 0 83 4.78248 83 10.6601V52.4462C83 58.3255 87.7825 63.1097 93.6601 63.1097H96.9829V79.6729C96.9829 80.3409 97.3729 80.9444 97.9832 81.219C98.207 81.3191 98.4426 81.3682 98.6783 81.3682C99.0851 81.3682 99.4869 81.2224 99.8022 80.941L119.91 63.1097H163.466C169.346 63.1097 174.128 58.3272 174.128 52.4462V43.7594C174.128 42.8236 173.37 42.0641 172.433 42.0641C171.495 42.0641 170.737 42.8236 170.737 43.7594V52.4462C170.737 56.4556 167.476 59.7191 163.466 59.7191H119.268C118.854 59.7191 118.454 59.87 118.144 60.1463L100.375 75.9025V61.4144C100.375 60.4786 99.6175 59.7191 98.6799 59.7191H93.6618C89.6541 59.7191 86.3923 56.4573 86.3923 52.4462V10.6601C86.3923 6.65241 89.6541 3.39062 93.6618 3.39062H163.47C167.479 3.39062 170.741 6.65071 170.741 10.6601V19.2147C170.741 20.1505 171.499 20.91 172.436 20.91C173.374 20.91 174.132 20.1505 174.132 19.2147V10.6601C174.13 4.78248 169.347 0 163.468 0V0Z" fill="#4938CA"/>
<rect x="58" y="59" width="3" height="15.8309" fill="#125B6B"/>
</svg>
