<svg width="183" height="173" viewBox="0 0 183 173" fill="none" xmlns="http://www.w3.org/2000/svg">
<path d="M40.5869 170.3C33.5275 170.3 26.4047 166.774 21.6869 161.522V161.522C17.241 156.573 14.9513 150.758 14.9513 144.106V114.864C14.9513 109.771 15.9871 104.593 18.8853 100.405C19.7941 99.0922 20.691 98.0664 21.8803 96.9976C26.4858 92.8586 32.823 91.2995 39.0152 91.2995H109.355C115.256 91.2995 121.244 92.7523 125.824 96.4734C127.561 97.8842 128.651 99.1335 129.751 100.935C132.133 104.835 132.951 109.474 132.951 114.044V144.371C132.951 150.938 130.805 157.807 126.418 162.695V162.695C121.514 168.159 114.34 170.3 106.997 170.3H40.5869Z" fill="white"/>
<path d="M15.4082 116.916V142.78C8.26247 142.78 2.47636 136.994 2.47636 129.848C2.47636 122.702 8.26247 116.916 15.4082 116.916Z" fill="white"/>
<path d="M74.3085 76.6219C67.1627 76.6219 61.3766 82.4081 61.3766 89.5538H87.242C87.242 82.4081 81.4542 76.6219 74.3085 76.6219Z" fill="white"/>
<path d="M146.142 129.848C146.142 136.994 140.356 142.78 133.21 142.78V116.916C140.354 116.916 146.142 122.702 146.142 129.848Z" fill="white"/>
<path d="M74.3085 61.2098C77.6155 61.2098 80.2963 58.529 80.2963 55.222C80.2963 51.915 77.6155 49.2341 74.3085 49.2341C71.0015 49.2341 68.3206 51.915 68.3206 55.222C68.3206 58.529 71.0015 61.2098 74.3085 61.2098Z" fill="#695CFF"/>
<path d="M50.6995 116.657C46.6952 116.657 43.4182 119.934 43.4182 123.938C43.4182 127.942 46.6952 131.219 50.6995 131.219C54.7039 131.219 57.9809 127.942 57.9809 123.938C57.9809 119.934 54.7056 116.657 50.6995 116.657Z" fill="#3A2C60"/>
<path d="M97.9191 131.219C101.94 131.219 105.2 127.96 105.2 123.938C105.2 119.917 101.94 116.657 97.9191 116.657C93.8977 116.657 90.6377 119.917 90.6377 123.938C90.6377 127.96 93.8977 131.219 97.9191 131.219Z" fill="#3A2C60"/>
<path d="M80.3455 139.56C80.2573 139.672 78.1568 142.309 74.3085 142.309C70.3889 142.309 68.3969 139.725 68.2952 139.593C67.7459 138.842 66.6931 138.672 65.9353 139.218C65.1758 139.766 65.0046 140.825 65.5522 141.585C65.6725 141.752 68.5851 145.699 74.3068 145.699C79.8827 145.699 82.9122 141.783 83.0376 141.617C83.6005 140.874 83.4547 139.822 82.7172 139.254C81.9832 138.691 80.9185 138.823 80.3455 139.56V139.56Z" fill="#3A2C60"/>
<path d="M134.904 115.328V112.854C134.904 99.0713 123.691 87.8568 109.908 87.8568H88.8288C88.049 81.1451 82.7155 75.8116 76.0038 75.0318V62.7C79.4249 61.9236 81.9916 58.872 81.9916 55.2203C81.9916 50.9837 78.545 47.5372 74.3085 47.5372C70.0719 47.5372 66.627 50.9837 66.627 55.2203C66.627 58.872 69.1937 61.9236 72.6132 62.7V75.0318C65.9014 75.8116 60.568 81.1467 59.7881 87.8568H38.7103C24.9257 87.8568 13.7129 99.0696 13.7129 112.854V115.328C6.44341 116.172 0.781067 122.356 0.781067 129.85C0.781067 137.341 6.44341 143.526 13.7129 144.37V147.806C13.7129 161.589 24.9257 172.804 38.7103 172.804H109.908C123.691 172.804 134.904 161.591 134.904 147.806V144.37C142.174 143.526 147.836 137.341 147.836 129.85C147.836 122.356 142.174 116.172 134.904 115.328ZM70.0176 55.222C70.0176 52.8554 71.9435 50.9295 74.3085 50.9295C76.6751 50.9295 78.601 52.8554 78.601 55.222C78.601 57.5887 76.6751 59.5129 74.3085 59.5129C71.9435 59.5129 70.0176 57.5887 70.0176 55.222V55.222ZM74.3085 78.3173C79.9267 78.3173 84.5973 82.464 85.4178 87.8585H63.2008C64.0196 82.464 68.6902 78.3173 74.3085 78.3173ZM4.17169 129.85C4.17169 124.23 8.31843 119.561 13.7129 118.74V140.959C8.31843 140.137 4.17169 135.468 4.17169 129.85ZM131.513 147.806C131.513 159.719 121.821 169.413 109.908 169.413H38.7103C26.7973 169.413 17.1035 159.721 17.1035 147.806V142.782V116.916V112.854C17.1035 100.941 26.7973 91.2474 38.7103 91.2474H61.3766H87.2403H109.908C121.821 91.2474 131.513 100.94 131.513 112.854V116.916V142.78V147.806ZM134.904 140.957V118.739C140.299 119.559 144.445 124.228 144.445 129.848C144.445 135.468 140.299 140.137 134.904 140.957Z" fill="#3A2C60"/>
<path d="M101.66 61.4127C96.7082 61.4127 92.6954 57.3982 92.6954 52.4462V10.6601C92.6954 5.71151 96.7082 1.69531 101.66 1.69531H171.468C176.42 1.69531 180.435 5.70981 180.435 10.6601V52.4462C180.435 57.3999 176.422 61.4127 171.468 61.4127H127.266L106.678 79.6712V61.4127H101.66Z" fill="white"/>
<path d="M171.468 0H101.66C95.7825 0 91.0001 4.78248 91.0001 10.6601V52.4462C91.0001 58.3255 95.7825 63.1097 101.66 63.1097H104.983V79.6729C104.983 80.3409 105.373 80.9444 105.983 81.219C106.207 81.3191 106.443 81.3682 106.678 81.3682C107.085 81.3682 107.487 81.2224 107.802 80.941L127.91 63.1097H171.466C177.346 63.1097 182.128 58.3272 182.128 52.4462V43.7594C182.128 42.8236 181.37 42.0641 180.433 42.0641C179.495 42.0641 178.738 42.8236 178.738 43.7594V52.4462C178.738 56.4556 175.476 59.7191 171.466 59.7191H127.268C126.854 59.7191 126.454 59.87 126.144 60.1463L108.375 75.9025V61.4144C108.375 60.4786 107.618 59.7191 106.68 59.7191H101.662C97.6542 59.7191 94.3924 56.4573 94.3924 52.4462V10.6601C94.3924 6.65241 97.6542 3.39062 101.662 3.39062H171.47C175.479 3.39062 178.741 6.65071 178.741 10.6601V19.2147C178.741 20.1505 179.499 20.91 180.436 20.91C181.374 20.91 182.132 20.1505 182.132 19.2147V10.6601C182.13 4.78248 177.347 0 171.468 0V0Z" fill="#3A2C60"/>
<path d="M132.253 20.085H137.048V44.585H132.253V34.435H123.153V44.585H118.323V20.085H123.153V29.815H132.253V20.085ZM143.629 24.985C142.882 24.985 142.229 24.7167 141.669 24.18C141.132 23.62 140.864 22.9667 140.864 22.22C140.864 21.4734 141.132 20.82 141.669 20.26C142.229 19.7 142.882 19.42 143.629 19.42C144.399 19.42 145.052 19.7 145.589 20.26C146.149 20.82 146.429 21.4734 146.429 22.22C146.429 22.9667 146.149 23.62 145.589 24.18C145.052 24.7167 144.399 24.985 143.629 24.985ZM141.389 44.585V27.085H145.904V44.585H141.389ZM150.876 36.36L149.931 27.085V20.085H155.356V27.085L154.446 36.36H150.876ZM154.761 44.165C154.178 44.7484 153.478 45.04 152.661 45.04C151.845 45.04 151.145 44.7484 150.561 44.165C149.978 43.5817 149.686 42.8817 149.686 42.065C149.686 41.2484 149.978 40.5484 150.561 39.965C151.145 39.3817 151.845 39.09 152.661 39.09C153.478 39.09 154.178 39.3817 154.761 39.965C155.345 40.5484 155.636 41.2484 155.636 42.065C155.636 42.8817 155.345 43.5817 154.761 44.165Z" fill="#695CFF"/>
<path d="M180.442 21.585C179.474 21.585 178.692 22.5818 178.692 23.81V39.3601C178.692 40.5882 179.474 41.585 180.442 41.585C181.41 41.585 182.192 40.5882 182.192 39.3601V23.81C182.192 22.5818 181.41 21.585 180.442 21.585Z" fill="#3A2C60"/>
</svg>
