<svg width="164" height="165" viewBox="0 0 164 165" fill="none" xmlns="http://www.w3.org/2000/svg">
<path d="M146.851 126.23C156.082 126.23 163.563 117.744 163.563 107.277V18.9497C163.563 8.48939 156.082 0 146.851 0H16.7153C7.48376 0 -1.52588e-05 8.48581 -1.52588e-05 18.9497V107.277C-1.52588e-05 117.748 7.48061 126.23 16.7153 126.23H98.2846C98.817 126.23 99.3274 126.442 99.7028 126.82L134.078 161.387C135.336 162.653 137.496 161.762 137.496 159.977V128.23C137.496 127.125 138.392 126.23 139.496 126.23H146.851Z" fill="url(#paint0_linear)"/>
<path d="M64.281 62.2368C61.3706 62.2368 58.9888 64.6186 58.9888 67.529C58.9888 70.4393 61.3706 72.8211 64.281 72.8211C67.1913 72.8211 69.5731 70.4393 69.5731 67.529C69.5731 64.6186 67.1926 62.2368 64.281 62.2368Z" fill="white"/>
<path d="M98.6003 72.8211C101.523 72.8211 103.892 70.4517 103.892 67.529C103.892 64.6062 101.523 62.2368 98.6003 62.2368C95.6776 62.2368 93.3082 64.6062 93.3082 67.529C93.3082 70.4517 95.6776 72.8211 98.6003 72.8211Z" fill="white"/>
<path d="M85.8277 78.8832C85.7637 78.9645 84.237 80.8805 81.44 80.8805C78.5913 80.8805 77.1435 79.0027 77.0695 78.9066C76.6703 78.3607 75.9052 78.2375 75.3544 78.6343C74.8024 79.0323 74.6779 79.8023 75.0759 80.3544C75.1634 80.4763 77.2802 83.3448 81.4388 83.3448C85.4914 83.3448 87.6932 80.4985 87.7844 80.3778C88.1935 79.8381 88.0875 79.0729 87.5515 78.6601C87.018 78.2511 86.2442 78.3472 85.8277 78.8832Z" fill="white"/>
<path d="M125.481 61.2704V59.4727C125.481 49.4552 117.332 41.3045 107.314 41.3045H91.9935C91.4267 36.4263 87.5503 32.55 82.6722 31.9832V23.0204C85.1587 22.4561 87.0242 20.2382 87.0242 17.5841C87.0242 14.505 84.5192 12 81.44 12C78.3609 12 75.8571 14.505 75.8571 17.5841C75.8571 20.2382 77.7226 22.4561 80.2079 23.0204V31.9832C75.3297 32.55 71.4534 36.4276 70.8866 41.3045H55.5671C45.5484 41.3045 37.3989 49.454 37.3989 59.4727V61.2704C32.1154 61.884 28 66.3789 28 71.8251C28 77.27 32.1154 81.7649 37.3989 82.3785V84.8761C37.3989 94.8936 45.5484 103.044 55.5671 103.044H107.314C117.332 103.044 125.481 94.8948 125.481 84.8761V82.3785C130.765 81.7649 134.88 77.27 134.88 71.8251C134.88 66.3789 130.765 61.884 125.481 61.2704ZM78.3214 17.5854C78.3214 15.8653 79.7212 14.4656 81.44 14.4656C83.1601 14.4656 84.5598 15.8653 84.5598 17.5854C84.5598 19.3055 83.1601 20.704 81.44 20.704C79.7212 20.704 78.3214 19.3055 78.3214 17.5854ZM81.44 34.3711C85.5234 34.3711 88.918 37.385 89.5144 41.3057H73.3669C73.962 37.385 77.3566 34.3711 81.44 34.3711ZM30.4643 71.8251C30.4643 67.7405 33.4782 64.3471 37.3989 63.7507V79.8994C33.4782 79.3018 30.4643 75.9085 30.4643 71.8251ZM123.017 84.8761C123.017 93.5345 115.973 100.58 107.314 100.58H55.5671C46.9087 100.58 39.8632 93.5357 39.8632 84.8761V81.224V62.4249V59.4727C39.8632 50.8143 46.9087 43.7688 55.5671 43.7688H72.0411H90.8389H107.314C115.973 43.7688 123.017 50.813 123.017 59.4727V62.4249V81.2228V84.8761ZM125.481 79.8982V63.7495C129.402 64.3459 132.416 67.7392 132.416 71.8239C132.416 75.9085 129.402 79.3018 125.481 79.8982Z" fill="white"/>
<rect x="96" y="85.9858" width="28.4062" height="2" rx="1" transform="rotate(-18.9809 96 85.9858)" fill="#9FF7D3"/>
<rect width="30.6809" height="2" rx="1" transform="matrix(-0.945627 -0.325253 -0.325253 0.945627 67.6631 86.979)" fill="#9FF7D3"/>
<path d="M101 79.8676C100.693 78.6072 99.7809 77.5879 98.5597 77.1411C93.0662 75.1313 87.2633 74.3115 83.9164 73.9852L83.814 73.9778C81.9221 73.8426 80.023 73.8427 78.1311 73.9782L78.049 73.984C74.7039 74.3097 68.8942 75.1291 63.3946 77.1411C62.1735 77.5879 61.2612 78.6071 60.9544 79.8679C60.6256 81.2196 60.6354 83.2362 60.9846 86.0328C61.0497 86.5545 61.2172 87.0415 61.4648 87.4753C61.5745 87.6677 61.6322 87.8843 61.6438 88.1055C61.6832 88.8552 61.7488 89.6876 61.8482 90.6122C61.9356 91.4251 62.2652 92.1562 62.7603 92.7383C62.9475 92.9583 63.0715 93.2245 63.1109 93.5107C63.1111 93.512 63.1113 93.5134 63.1115 93.5147C63.1126 93.5224 63.1136 93.5303 63.1147 93.5382C63.3553 95.2485 64.8234 96.5186 66.5506 96.5186H95.4039C97.131 96.5186 98.5991 95.2485 98.8398 93.5382C98.8409 93.5303 98.842 93.5224 98.843 93.5147C98.8432 93.5133 98.8434 93.512 98.8436 93.5105C98.883 93.2244 99.007 92.9582 99.1942 92.7382C99.6893 92.1561 100.019 91.425 100.106 90.612C100.206 89.6875 100.271 88.8551 100.311 88.1054C100.322 87.8843 100.38 87.6676 100.49 87.4753C100.737 87.0415 100.905 86.5545 100.97 86.0327C101.319 83.2361 101.329 81.2195 101 79.8676Z" fill="#EFF5F6"/>
<path d="M100.97 86.0329C100.891 86.6606 100.665 87.2385 100.328 87.7341C100.292 88.5781 100.223 89.5317 100.106 90.6124C100.002 91.5752 99.5585 92.4242 98.9024 93.0458C98.8821 93.2215 98.8618 93.3789 98.8425 93.515C98.8415 93.5221 98.8405 93.5303 98.8395 93.5384C98.5988 95.2487 97.1312 96.5182 95.4036 96.5182H94.8054C95.3934 95.9332 95.8027 95.1238 95.9195 94.1985C95.9205 94.1904 95.9216 94.1813 95.9226 94.1732C95.9409 94.0218 95.9612 93.8471 95.9825 93.6521C96.6386 92.9615 97.0824 92.02 97.186 90.9506C97.3018 89.7521 97.3719 88.6918 97.4074 87.7554C97.7446 87.206 97.9711 86.5651 98.0493 85.8674C98.3987 82.7626 98.4088 80.5242 98.0798 79.0231C97.8411 77.9333 97.2338 77.005 96.3989 76.4139C97.12 76.6364 97.8431 76.8791 98.5602 77.1411C99.7809 77.588 100.693 78.6067 101 79.8671C101.329 81.2199 101.319 83.2359 100.97 86.0329Z" fill="#CBE5E7"/>
<path d="M66.1737 91.5701C66.1737 91.5701 69.1602 102.163 80.9771 102.163C92.794 102.163 95.7806 91.5701 95.7806 91.5701H66.1737Z" fill="#27E19D"/>
<path d="M95.7812 91.5701C95.7812 91.5701 92.7952 102.163 80.9784 102.163C80.4959 102.163 80.0277 102.146 79.5748 102.111C79.5748 102.111 79.5748 102.111 79.5749 102.11C83.0987 101.845 85.6491 100.586 87.4839 99.0255C87.9539 98.6256 87.6088 97.8622 86.999 97.9572C85.4206 98.2034 84.0452 98.3547 83.0158 98.446H83.0147C81.6579 98.5353 80.2969 98.5353 78.9401 98.446C76.7422 98.251 72.9702 97.7848 69.0062 96.7001C66.8897 94.1092 66.1747 91.5702 66.1747 91.5702H95.7812V91.5701Z" fill="#26D192"/>
<path d="M65.7642 88.071C65.6927 90.4424 65.8884 92.272 66.0047 93.1153C66.0484 93.4317 66.265 93.6956 66.5654 93.8039C73.348 96.2512 80.6401 96.5367 80.9706 96.5486V96.5491C80.9706 96.5491 80.973 96.549 80.9771 96.5489C80.9813 96.549 80.9836 96.5491 80.9836 96.5491V96.5486C81.3142 96.5368 88.6063 96.2512 95.3889 93.8039C95.6893 93.6956 95.9059 93.4317 95.9496 93.1153C96.0659 92.272 96.2616 90.4424 96.1901 88.071H65.7642Z" fill="#72F4C3"/>
<path d="M95.9506 93.1162C95.907 93.4321 95.6896 93.6962 95.39 93.8048C94.3114 94.1938 93.2206 94.528 92.1461 94.8144C92.1441 94.8154 92.142 94.8164 92.139 94.8164C92.4345 94.7067 92.6468 94.4447 92.6905 94.1319C92.6909 94.1291 92.6912 94.1264 92.6916 94.1235C92.7934 93.3725 92.2572 92.6844 91.5045 92.5951C88.6862 92.2611 84.9607 91.9441 80.9773 91.9441C74.3798 91.9441 68.4851 92.8145 66.2568 93.1893C66.1806 93.2015 66.1035 93.2116 66.0263 93.2187C66.0161 93.1852 66.01 93.1507 66.0049 93.1161C65.8892 92.2722 65.6931 90.443 65.7653 88.0715H96.1903C96.2624 90.4431 96.0664 92.2723 95.9506 93.1162Z" fill="#27E19D"/>
<path d="M97.2226 83.6375C97.156 83.315 96.9337 83.0452 96.6296 82.919C89.277 79.8676 81.3428 79.5124 80.9842 79.4978V79.4972C80.9842 79.4972 80.9817 79.4973 80.9772 79.4975C80.9728 79.4973 80.9702 79.4972 80.9702 79.4972V79.4978C80.6117 79.5124 72.6774 79.8676 65.3248 82.919C65.0208 83.0453 64.7984 83.3151 64.7319 83.6375C64.5576 84.4818 64.3383 86.4465 64.7523 90.2999C64.8142 90.8755 65.3487 91.2813 65.9197 91.1854C68.2577 90.7928 74.2481 89.9127 80.9773 89.9121C87.7066 89.9127 93.6969 90.7928 96.035 91.1854C96.606 91.2813 97.1405 90.8756 97.2024 90.2999C97.6162 86.4465 97.3968 84.4819 97.2226 83.6375Z" fill="#9FF7D3"/>
<path d="M97.2226 83.637C97.1555 83.315 96.9341 83.0449 96.6294 82.919C89.2773 79.867 81.3423 79.5125 80.9837 79.4973C80.9837 79.4973 80.9817 79.4973 80.9776 79.4973C80.9726 79.4973 80.9705 79.4973 80.9705 79.4973C80.7908 79.5044 78.7179 79.5979 75.7705 80.0691C72.8222 80.5414 69.0014 81.3935 65.3248 82.919C65.0202 83.0449 64.7987 83.315 64.7317 83.637C64.5855 84.3429 64.4087 85.8297 64.5966 88.5455C64.6789 88.5536 64.7632 88.5567 64.8475 88.5567C64.9958 88.5567 65.1441 88.5465 65.2903 88.5242C67.6567 88.1728 73.9221 87.3552 80.9766 87.3542C85.5056 87.3548 89.7089 87.692 92.7644 88.0262C93.5703 88.1144 94.155 88.832 94.0791 89.6392C94.0719 89.7157 94.0645 89.793 94.0569 89.8709C94.0142 90.3036 93.7491 90.6489 93.4028 90.788C94.5078 90.9383 95.4036 91.0795 96.0343 91.1851C96.6061 91.2816 97.1403 90.8754 97.2023 90.2995C97.2742 89.6312 97.3265 89.0212 97.3637 88.4628C97.3635 88.4628 97.3633 88.4628 97.3631 88.4628C97.5417 85.8 97.3673 84.3355 97.2226 83.637Z" fill="#72F4C3"/>
<path d="M98.1618 80.5581C98.0861 80.2468 97.857 79.9941 97.5561 79.884C89.7854 77.041 81.3637 76.7112 80.9846 76.6977V76.6971C80.9846 76.6971 80.9819 76.6972 80.9771 76.6974C80.9724 76.6972 80.9697 76.6971 80.9697 76.6971V76.6977C80.5906 76.7112 72.1688 77.041 64.3982 79.884C64.0972 79.9941 63.8682 80.2468 63.7925 80.5581C63.6323 81.2168 63.5052 82.6467 63.8827 85.671C63.9505 86.2139 64.4509 86.5955 64.9921 86.5151C67.3626 86.163 73.7673 85.324 80.9771 85.3233C88.1871 85.324 94.5917 86.163 96.9622 86.5151C97.5034 86.5955 98.0037 86.2139 98.0715 85.671C98.449 82.6466 98.3221 81.2167 98.1618 80.5581Z" fill="#C4FAE3"/>
<path d="M98.0716 85.6713C98.0036 86.2137 97.5039 86.5956 96.9626 86.5153C96.3948 86.431 95.5965 86.3193 94.6104 86.1964C94.7627 86.0207 94.8673 85.7841 94.8958 85.5139C95.2736 81.9328 95.1466 80.2408 94.9861 79.4608C94.9486 79.277 94.8724 79.1094 94.7678 78.9723C95.6961 79.2424 96.6304 79.5461 97.5557 79.8843C97.8573 79.994 98.0858 80.2469 98.162 80.5577C98.3225 81.2168 98.4494 82.6468 98.0716 85.6713Z" fill="#9FF7D3"/>
<defs>
<linearGradient id="paint0_linear" x1="81.7815" y1="0" x2="81.7815" y2="164.825" gradientUnits="userSpaceOnUse">
<stop stop-color="#3A2BAB"/>
<stop offset="1" stop-color="#210CC1"/>
</linearGradient>
</defs>
</svg>
