<svg width="58" height="31" viewBox="0 0 58 31" fill="none" xmlns="http://www.w3.org/2000/svg">
<circle cx="15" cy="15.5" r="15" fill="#3A2BAB"/>
<path d="M10.6269 23.7497C9.54798 23.7497 8.48085 23.2021 7.78676 22.3761V22.3761C7.18933 21.6651 6.87762 20.8438 6.87762 19.9151V15.5345C6.87762 14.6529 7.02376 13.72 7.548 13.0111V13.0111C8.2641 12.0429 9.57691 11.8037 10.7812 11.8037H19.5203C20.7676 11.8037 22.1862 12.017 22.8979 13.0413V13.0413C23.3868 13.7449 23.4855 14.6362 23.4855 15.4929V19.9627C23.4855 20.8716 23.182 21.8478 22.6062 22.5511V22.5511C21.8924 23.4231 20.8079 23.7497 19.6809 23.7497H10.6269Z" fill="white"/>
<path d="M6.42895 15.7034V19.5467C5.36708 19.5467 4.50726 18.6869 4.50726 17.6251C4.50726 16.5632 5.36708 15.7034 6.42895 15.7034Z" fill="white"/>
<path d="M15.2093 9.47266C14.1475 9.47266 13.2877 10.3325 13.2877 11.3943H17.1313C17.1313 10.3325 16.2712 9.47266 15.2093 9.47266Z" fill="white"/>
<path d="M25.8561 17.6251C25.8561 18.6869 24.9963 19.5467 23.9344 19.5467V15.7034C24.9961 15.7034 25.8561 16.5632 25.8561 17.6251Z" fill="white"/>
<path d="M15.2087 7.46881C15.7001 7.46881 16.0985 7.07043 16.0985 6.57901C16.0985 6.08759 15.7001 5.68921 15.2087 5.68921C14.7173 5.68921 14.3189 6.08759 14.3189 6.57901C14.3189 7.07043 14.7173 7.46881 15.2087 7.46881Z" fill="white"/>
<path d="M11.6733 15.6649C11.0782 15.6649 10.5912 16.1519 10.5912 16.7469C10.5912 17.342 11.0782 17.829 11.6733 17.829C12.2683 17.829 12.7553 17.342 12.7553 16.7469C12.7553 16.1519 12.2686 15.6649 11.6733 15.6649Z" fill="#3A2BAB"/>
<path d="M18.6901 17.829C19.2877 17.829 19.7721 17.3445 19.7721 16.7469C19.7721 16.1494 19.2877 15.6649 18.6901 15.6649C18.0925 15.6649 17.6081 16.1494 17.6081 16.7469C17.6081 17.3445 18.0925 17.829 18.6901 17.829Z" fill="#3A2BAB"/>
<path d="M16.0787 19.0685C16.0656 19.0851 15.7534 19.4768 15.1816 19.4768C14.5991 19.4768 14.3031 19.0929 14.288 19.0732C14.2064 18.9616 14.0499 18.9364 13.9373 19.0176C13.8245 19.0989 13.799 19.2564 13.8804 19.3692C13.8983 19.3942 14.3311 19.9807 15.1813 19.9807C16.0099 19.9807 16.4601 19.3987 16.4787 19.374C16.5624 19.2637 16.5407 19.1072 16.4311 19.0229C16.322 18.9392 16.1638 18.9589 16.0787 19.0685V19.0685Z" fill="#3A2BAB"/>
<rect x="15.0811" y="6.66211" width="0.291366" height="2.91366" fill="white"/>
</svg>
